<?xml version="1.0" encoding="UTF-8"?>
<svg version="1.1" xmlns="http://www.w3.org/2000/svg">
 <g transform="translate(-2.2562 -199.94)">
  <path d="m96.317 281.99a0.48557 0.48557 0 0 1 0.12341 0.24405s0.15583 0.6588 0.12874 1.1721c-0.0286 0.54153-0.27022 1.2345-0.27022 1.2345a0.48557 0.48557 0 1 1-0.92669-0.28833s0.21573-0.7774 0.22732-0.9971c0.0101-0.19147-0.11198-0.93138-0.11198-0.93138a0.48557 0.48557 0 0 1 0.82945-0.43383zm-3.6095-1.0346a0.74751 0.74751 0 0 1 0.18994 0.37573s0.23988 1.0142 0.19819 1.8044c-0.044 0.83365-0.416 1.9004-0.416 1.9004a0.74751 0.74751 0 1 1-1.4266-0.44388s0.33208-1.1968 0.34993-1.535c0.0155-0.29477-0.17239-1.4338-0.17239-1.4338a0.74751 0.74751 0 0 1 1.2769-0.66787zm-4.3121-0.64329a1.0001 1.0001 0 0 1 0.25412 0.50271s0.32094 1.3569 0.26516 2.4141c-0.0588 1.1153-0.55657 2.5425-0.55657 2.5425a1.0001 1.0001 0 1 1-1.9086-0.59385s0.44431-1.6012 0.46819-2.0536c0.0208-0.39437-0.23064-1.9183-0.23064-1.9183a1.0001 1.0001 0 0 1 1.7084-0.89355zm-19.218-5.6934a1.5842 2.0513 34.916 0 1-0.24444 2.182 1.5842 2.0513 34.916 0 1-1.5368 0.99022c0.12247 0.0911 0.26089 0.18623 0.37037 0.22995 0.0726 0.0287 0.15449 0.0512 0.23457 0.035 0.11137-0.0226 0.21301-0.10186 0.30467-0.17782 0.10116-0.0839 0.17893-0.19534 0.26147-0.29895 0.10014-0.12588 0.17765-0.26971 0.28296-0.39114 0.0867-0.0994 0.18225-0.19075 0.28357-0.27368 0.10318-0.0846 0.21446-0.15873 0.32815-0.22575 0.1449-0.0854 0.29487-0.16265 0.44906-0.22321 0.17242-0.0678 0.34903-0.1289 0.52791-0.15522 0.14114-0.0208 0.2882-0.0347 0.42182-1e-3 0.30599 0.0766 0.5927 0.23638 0.82079 0.44948 0.16276 0.15146 0.29132 0.4237 0.36491 0.56793 0.10723 0.22107 0.18973 0.72692 0.18973 0.72692s-0.35924-5e-3 -0.52871-0.0481c-0.15225-0.0385-0.2928-0.10993-0.42858-0.18538-0.16312-0.0906-0.29249-0.23536-0.45864-0.32019-0.0859-0.0422-0.17811-0.075-0.27393-0.0911-0.10784-0.0183-0.22074-0.0175-0.33239-5e-3 -0.13654 0.0148-0.27271 0.0535-0.40664 0.095-0.11111 0.0345-0.2222 0.0733-0.32736 0.12754-0.12177 0.0628-0.23801 0.14029-0.34681 0.22703-0.11744 0.0937-0.21581 0.21156-0.32665 0.31391-0.11615 0.10767-0.22359 0.22925-0.35497 0.31425-0.13526 0.0872-0.28308 0.16683-0.43543 0.19242-0.17447 0.0294-0.35302 2e-3 -0.5146-0.0499-0.20441-0.0657-0.40368-0.16884-0.55144-0.3232-0.0724-0.0738-0.14857-0.27783-0.14857-0.27783s-0.21722-2e-3 -0.31203-0.0437c-0.19582-0.0855-0.36139-0.23694-0.49349-0.40623-0.10401-0.13413-0.19161-0.29202-0.22428-0.46582-0.0286-0.15173-5e-3 -0.31808 0.0305-0.47508 0.0342-0.15274 0.11192-0.29522 0.17263-0.44153 0.0578-0.13938 0.13447-0.27235 0.18188-0.41493 0.0439-0.13203 0.0765-0.2679 0.0935-0.40383 0.0146-0.11738 0.0128-0.23509 7e-3 -0.35126-7e-3 -0.1401-0.0179-0.28124-0.0511-0.41445-0.027-0.10904-0.0653-0.21518-0.11957-0.31018-0.0481-0.0844-0.11077-0.15957-0.1797-0.22594-0.13621-0.12773-0.31631-0.1988-0.45815-0.31985-0.11761-0.10148-0.23364-0.20903-0.32193-0.33904-0.0986-0.14433-0.22742-0.47972-0.22742-0.47972s0.50328-0.097 0.74776-0.0725c0.16078 0.0194 0.46036 0.0468 0.65891 0.14676 0.27867 0.14064 0.52763 0.35448 0.70488 0.6155 0.0774 0.11393 0.11515 0.2567 0.14432 0.39639 0.037 0.17698 0.0409 0.36416 0.0368 0.54936-4e-3 0.16563-0.025 0.33272-0.0552 0.49817-0.0237 0.12988-0.0549 0.25978-0.0988 0.38584-0.043 0.12365-0.0957 0.24491-0.15949 0.36038-0.0777 0.14073-0.1859 0.26311-0.26957 0.40053-0.0688 0.11318-0.14665 0.22457-0.19045 0.34849-0.0396 0.11217-0.0791 0.23495-0.0619 0.34729 0.0125 0.0808 0.0617 0.14999 0.11377 0.2081 0.0783 0.0882 0.21558 0.18517 0.34351 0.26841a1.5842 2.0513 34.916 0 1 0.39967-1.7839 1.5842 2.0513 34.916 0 1 1.9649-0.98111zm2.7973-0.50535a0.72497 0.72497 0 0 0 0 1.0253 0.72497 0.72497 0 0 0 1.0253 0 0.72497 0.72497 0 0 0 0-1.0253 0.72497 0.72497 0 0 0-1.0253 0zm1.7859-0.92604a0.72497 0.72497 0 0 0 7e-6 1.0252 0.72497 0.72497 0 0 0 1.0252 0 0.72497 0.72497 0 0 0 7e-6 -1.0252 0.72497 0.72497 0 0 0-1.0253 0zm-9.2267 5.9206s0.14898-0.59069 0.16535-0.89297c0.0239-0.44156-0.0261-0.88679-0.0992-1.3229-0.0537-0.32041-0.12277-0.64281-0.24805-0.94258-0.12102-0.28958-0.29019-0.55999-0.47956-0.81028-0.19288-0.25497-0.42617-0.47808-0.66145-0.69455-0.21351-0.1964-0.43813-0.38255-0.67804-0.54567-0.19392-0.13184-0.39167-0.26651-0.61184-0.34727-0.19483-0.0715-0.40429-0.11349-0.61185-0.11576-0.13414-1e-3 -0.27422 0.0119-0.39686 0.0661-0.12203 0.054-0.24446 0.13429-0.31422 0.24803-0.0734 0.11983-0.10245 0.27428-0.0827 0.41342 0.0218 0.15378 0.10854 0.30029 0.21497 0.41341 0.15407 0.16397 0.37958 0.24268 0.57878 0.34727 0.23587 0.12387 0.49224 0.20591 0.72761 0.33073 0.20543 0.10898 0.40316 0.23279 0.59531 0.36381 0.18854 0.12857 0.38367 0.25271 0.54575 0.41337 0.173 0.17159 0.30827 0.37813 0.44645 0.57882 0.13186 0.19155 0.2538 0.39042 0.3638 0.59531 0.0863 0.1608 0.16556 0.32593 0.23152 0.49609 0.0668 0.1723 0.12742 0.3483 0.16536 0.52917 0.041 0.1954 0.0268 0.39956 0.0662 0.5953 0.0192 0.0957 0.0827 0.28116 0.0827 0.28116zm-0.0124 3.0212s0.22605-0.40794 0.36249-0.59634c0.18524-0.25581 0.40261-0.48705 0.61574-0.72011 0.17066-0.18664 0.35268-0.36258 0.53009-0.54282 0.13182-0.13323 0.27448-0.25624 0.39757-0.39757 0.13156-0.15108 0.28147-0.29617 0.36247-0.47942 0.0513-0.11608 0.0814-0.24779 0.0702-0.37419-0.0107-0.12042-0.0559-0.24248-0.12862-0.33909-0.0703-0.0935-0.1661-0.18689-0.28063-0.21049-0.11384-0.0235-0.23615 0.0278-0.3391 0.0819-0.18201 0.0956-0.32467 0.25623-0.45959 0.41137-0.11341 0.13037-0.2031 0.28045-0.28878 0.43051-0.15649 0.27401-0.29316 0.56018-0.40926 0.85359-0.11883 0.30032-0.21998 0.60899-0.29232 0.92375-0.0724 0.31481-0.14033 0.95884-0.14033 0.95884zm-19.749-9.904s0.06922 0.50456 0.14004 0.74826c0.0703 0.24186 0.12952 0.50022 0.2806 0.70178 0.21982 0.29322 0.54102 0.50785 0.86558 0.678 0.20962 0.10991 0.44398 0.17484 0.67799 0.21032 0.40079 0.0608 0.81275 0.0418 1.2159 0 0.34064-0.0353 0.67394-0.12505 1.0056-0.21032 0.38689-0.0995 0.76245-0.23987 1.1462-0.35089 0.42689-0.12351 0.85372-0.24826 1.2862-0.35036 0.34817-0.0822 0.69973-0.14923 1.0521-0.21085 0.31059-0.0543 0.62073-0.12967 0.93586-0.14004 0.18764-6e-3 0.5612 0.0465 0.5612 0.0465s-1.2673 0.53597-1.8945 0.81854c-0.3847 0.17336-0.76082 0.36608-1.1462 0.53795-0.40198 0.17931-0.80208 0.36492-1.2159 0.51472-0.50552 0.18294-1.0208 0.34224-1.5436 0.46765-0.43123 0.10346-0.86904 0.18199-1.3095 0.23361-0.411 0.0481-0.82556 0.0823-1.2392 0.0703-0.40788-0.0119-0.81745-0.0546-1.2165-0.14005-0.32786-0.0702-0.67209-0.1302-0.9586-0.30437-0.23551-0.14317-0.44869-0.3446-0.58446-0.58447-0.0316-0.0559-0.04702-0.18706-0.04703-0.18706 0 0 0.24248-0.10721 0.34107-0.19275 0.19855-0.17224 0.38943-0.37846 0.48111-0.62478 0.0674-0.18114 0.06824-0.38891 0.03204-0.57878-0.0337-0.17682-0.11818-0.3465-0.22634-0.4904-0.0866-0.11528-0.20997-0.19852-0.32659-0.28319-0.10576-0.0762-0.2122-0.15996-0.33642-0.19947-0.19792-0.0629-0.41454-0.0709-0.62115-0.0501-0.25931 0.0262-0.51733 0.1024-0.75138 0.21707-0.18034 0.0884-0.33064 0.22878-0.48679 0.35499-0.15453 0.12499-0.30739 0.25344-0.44442 0.3974-0.14535 0.15243-0.29206 0.30853-0.39739 0.49094-0.10859 0.18806-0.19394 0.3947-0.23358 0.60822-0.0484 0.26059-0.0382 0.53303 0 0.79531 0.0433 0.29777 0.11871 0.59772 0.25683 0.86506 0.1682 0.32557 0.40426 0.62251 0.67851 0.86558 0.22341 0.19796 0.49126 0.34648 0.76584 0.46353 0.2542 0.1084 0.53026 0.15909 0.80099 0.21447 0.21601 0.0442 0.65474 0.0935 0.65474 0.0935s-0.0916 0.2322-0.13333 0.34986c-0.0357 0.10088-0.07836 0.20002-0.09973 0.30488-0.028 0.13766-0.04587 0.27998-0.03617 0.42013 6e-3 0.0911 0.02736 0.18208 0.06046 0.26717 0.0259 0.0667 0.05988 0.13219 0.10646 0.18654 0.0704 0.0817 0.1559 0.15457 0.25321 0.20103 0.11969 0.0572 0.25604 0.0814 0.38861 0.0863 0.15106 6e-3 0.30354-0.023 0.44855-0.0656 0.18494-0.0544 0.35972-0.14272 0.52658-0.23926 0.11385-0.0659 0.21914-0.14658 0.32091-0.22995 0.0866-0.071 0.16714-0.14891 0.24546-0.22892 0.0468-0.0478 0.0829-0.19378 0.13333-0.14989 6e-3 5e-3 -0.01732 0.0102-0.01602 0.0186 0.0304 0.24733 0.37717 0.34107 0.60771 0.43561 0.13875 0.0569 0.29454 0.066 0.44442 0.0703 0.31324 9e-3 0.63351-0.0111 0.93586-0.0935 0.21537-0.0587 0.41402-0.16968 0.60772-0.28062 0.37906-0.21709 0.7195-0.49622 1.0759-0.74879 0.34514-0.24459 0.6846-0.49681 1.0289-0.74258 0.31069-0.22175 0.61337-0.45543 0.93534-0.66043 0.31808-0.20254 0.64309-0.39664 0.98237-0.56121 0.35555-0.17248 0.73002-0.30332 1.0992-0.44442 0.24769-0.0947 0.4961-0.18775 0.74827-0.26974 0.21257-0.0691 0.42417-0.14616 0.64389-0.18706 0.21894-0.0409 0.44288-0.0559 0.66559-0.0574 0.32047-3e-3 0.64812-7e-3 0.95911 0.0703 0.20663 0.0514 0.58446 0.25683 0.58446 0.25683s-0.80475-0.0196-1.1855 0.0904c-0.41784 0.12094-0.78273 0.38287-1.1529 0.61132-0.21269 0.13123-0.41933 0.27402-0.61082 0.4346-0.1734 0.14539-0.32808 0.31216-0.48421 0.47593-0.18927 0.19918-0.37501 0.40235-0.54777 0.61601-0.1844 0.22793-0.36038 0.4631-0.5209 0.70847-0.06389 0.0977-0.15065 0.24776-0.22324 0.37621-0.28322-0.0663-0.59088-0.098-0.9002-0.0997-0.96069 0.0911-1.7098 0.35902-2.3187 1.2909l-0.0078-9e-3s-0.70693 1.1132-1.1777 1.5224c-0.15922 0.13835-0.34857 0.28295-0.52917 0.29094-0.13357 6e-3 -0.24533-0.0878-0.33073-0.18447-0.32014-0.36065-0.6165-1.3978-0.6165-1.3978s-0.62511 0.96634-0.74466 1.4971c-0.07956 0.35303-0.06975 0.72837 0.03927 1.0268 0.11424 0.31253 0.34479 0.55896 0.6103 0.70694 0.33224 0.18653 0.74539 0.3142 1.1534 0.19172 0.43663-0.13105 0.83808-0.53647 1.1731-0.9276 0.47139-0.55039 1.0899-1.8774 1.1121-1.9254 0.014-0.0209 0.02717-0.0426 0.03927-0.0646 0.35853-0.6431 0.97992-1.0872 1.6573-1.1514 0.24611-0.0233 0.48319 0.01 0.70073 0.0868-1.0904 0.23066-2.2135 1.1768-2.9409 2.4774-0.80393 1.4448-0.97384 3.0602-0.43201 4.1083 1.1758-0.0932 2.4583-1.0874 3.2628-2.5296 0.72407-1.3023 0.93851-2.7555 0.56172-3.8044 0.17984 0.14425 0.33139 0.32859 0.4408 0.54983 0.30148 0.60997 0.25053 1.3718-0.108 2.0149-0.01299 0.0233-0.02535 0.0472-0.03566 0.0718-0.03631 0.0553-0.83119 1.2678-1.0506 1.9549-0.15662 0.49056-0.29064 1.0449-0.1726 1.4852 0.11036 0.41148 0.43711 0.69498 0.76998 0.88056 0.26598 0.14714 0.59549 0.21447 0.92139 0.1473 0.31117-0.0642 0.63634-0.25339 0.89504-0.50644 0.38857-0.38071 0.8816-1.4206 0.8816-1.4206s-1.038 0.29353-1.5131 0.21082c-0.12719-0.022-0.26584-0.0679-0.33125-0.18446-0.08839-0.15767-0.06449-0.39492-0.03049-0.60307 0.10057-0.61566 0.67644-1.802 0.67644-1.802l-0.0124-3e-3c0.47254-1.0079 0.30717-1.7859-0.12041-2.651-0.16049-0.32475-0.37613-0.59655-0.63149-0.81132 0.09849-0.13311 0.15657-0.21553 0.23978-0.31938 0.31279-0.39041 0.62398-0.78414 0.97514-1.1405 0.25935-0.26358 0.54453-0.50133 0.83251-0.73329 0.22833-0.18394 0.44734-0.3881 0.70848-0.52142 0.19034-0.0971 0.40138-0.15285 0.61082-0.19534 0.25316-0.0514 0.51338-0.0794 0.77153-0.0703 0.33939 0.0119 0.67588 0.0826 1.0056 0.1638 0.38296 0.0944 0.77059 0.19587 1.1224 0.37415 0.40902 0.20727 0.77545 0.49612 1.1229 0.79531 0.41783 0.3597 0.79063 0.77089 1.1457 1.1927 0.25853 0.30715 0.50708 0.62621 0.71365 0.97046 0.16237 0.27056 0.31367 0.55282 0.40876 0.85371 0.0857 0.27127 0.10877 0.55909 0.14056 0.84179 0.0445 0.39577 0.06778 0.79447 0.07028 1.1927 0.0021 0.33554-0.01503 0.67159-0.04702 1.0056-0.0465 0.48617-0.10987 0.97213-0.21032 1.45-0.11172 0.53157-0.31492 1.0407-0.43512 1.5705-0.08555 0.37695-0.19121 1.0549-0.20826 1.1648l-0.08113 0.14107 0.06976-0.0703s0.39736-0.28721 0.58498-0.44442c0.41446-0.34713 0.81775-0.70967 1.1927-1.0992 0.28422-0.29554 0.53282-0.62296 0.7984-0.93536 0.35046-0.41237 0.6825-0.841 1.049-1.2392 0.35086-0.38126 0.71539-0.75102 1.0992-1.0992 0.40004-0.36298 0.7955-0.73993 1.2516-1.0294 0.61408-0.38963 1.2582-0.7924 1.9715-0.9343 0.66738-0.13277 1.3915-0.10708 2.0392 0.10178 0.54423 0.17556 1.0352 0.52803 1.4402 0.93173 0.32766 0.32661 0.57719 0.73671 0.75758 1.1627 0.11831 0.2793 0.21157 0.58404 0.20206 0.88728-8e-3 0.26517-0.08958 0.53552-0.22479 0.76378-0.0046 8e-3 -0.01428 0.0172-0.01964 0.0253a1.5544 1.5544 0 0 0-0.0987-0.10904 1.5544 1.5544 0 0 0-2.1983 0 1.5544 1.5544 0 0 0-0.19327 1.9622s5.16e-4 5e-4 5.19e-4 5e-4a1.5544 1.5544 0 0 0 0.19275 0.23567 1.5544 1.5544 0 0 0 0.53278 0.3483c0.0019 8.7e-4 0.0043 2e-3 0.0062 3e-3 0.01302 6e-3 0.02706 9e-3 0.04031 0.014a1.5544 1.5544 0 0 0 0.02481 9e-3c0.05891 0.0212 0.11931 0.0374 0.18138 0.0491a1.5544 1.5544 0 0 0 0.02481 5e-3c0.02346 4e-3 0.04659 9e-3 0.07028 0.0119a1.5544 1.5544 0 0 0 0.30076 0.0134c0.0043-1e-4 0.0086 1.1e-4 0.01292 0 0.34893-9e-3 0.70657-0.07 1.0253-0.2124 0.43467-0.19413 0.83076-0.49422 1.1493-0.84802 0.38109-0.42315 0.7541-0.91466 0.86506-1.4733 0.14261-0.718-0.03544-1.494-0.30386-2.1751-0.23847-0.6051-0.67782-1.1206-1.1209-1.5968-0.38414-0.41283-0.83343-0.77015-1.3115-1.0692-0.29866-0.1868-0.62193-0.34076-0.9586-0.44442-0.47982-0.14772-0.98417-0.24567-1.4862-0.24496-0.53422 0-1.0709 0.10462-1.5803 0.26565-0.49567 0.15666-0.96311 0.40253-1.4071 0.6728-0.76567 0.46607-1.4766 1.0244-2.1446 1.6221-0.54956 0.49167-1.0529 1.011-1.5312 1.5911 0.01315-0.0737 0.08958-0.50257 0.1142-0.74829 0.02569-0.25667 0.03319-0.51512 0.03669-0.77306 5e-3 -0.36645 0.02104-0.73538-0.02325-1.0992-0.0473-0.38862-0.13126-0.77507-0.25735-1.1457-0.1966-0.57783-0.46092-1.1355-0.77153-1.6609-0.22137-0.37444-0.50518-0.70858-0.77205-1.0521-0.27861-0.35867-0.55527-0.72057-0.86506-1.0526-0.27081-0.29035-0.55406-0.57126-0.86506-0.81804-0.43183-0.34274-0.90595-0.63105-1.3803-0.91209-0.54602-0.32348-1.0949-0.65175-1.6836-0.88885-0.54927-0.22121-1.1297-0.36089-1.7074-0.49093-0.51636-0.11615-1.039-0.21839-1.5668-0.25733-0.5054-0.0373-1.0146-0.0164-1.5198 0.0233-0.32971 0.0259-0.65477 0.0951-0.98237 0.14055-0.52199 0.0723-1.0489 0.11329-1.5668 0.21034-0.45716 0.0856-0.89466 0.27215-1.3565 0.32711-0.43348 0.0516-0.87749 0.0629-1.3095 0-0.29777-0.0433-0.58582-0.14476-0.86506-0.25683-0.60181-0.24157-1.7306-0.88884-1.7306-0.88884zm16.438 12.299s-0.0793-1.1711-0.28055-1.7138c-0.19873-0.53586-0.51068-1.0389-0.89324-1.4635-0.14936-0.16576-0.33742-0.29711-0.53204-0.40617-0.30568-0.17119-0.64519-0.27676-0.98025-0.37904-0.23654-0.0723-0.48849-0.0876-0.72349-0.16469-0.18463-0.0605-0.37758-0.11788-0.53443-0.23276-0.15912-0.11599-0.28792-0.2752-0.3901-0.44356-0.0635-0.10456-0.11386-0.22107-0.13303-0.3418-0.022-0.13793-0.0327-0.29071 0.0236-0.41865 0.0915-0.20905 0.28071-0.37532 0.4777-0.49042 0.15213-0.0888 0.33575-0.1163 0.5109-0.13469 0.19389-0.0203 0.39272-9e-3 0.58419 0.0282 0.2425 0.0464 0.48481 0.12054 0.7008 0.24025 0.27561 0.15272 0.50518 0.37903 0.73383 0.5958 0.23355 0.22083 0.45706 0.45564 0.64693 0.71496 0.24391 0.33314 0.46356 0.68944 0.62458 1.0696 0.13198 0.31159 0.20997 0.64526 0.2735 0.97763 0.0571 0.29897 0.0984 0.60376 0.0957 0.90813-5e-3 0.5557-0.20462 1.6546-0.20462 1.6546zm-1.4382 1.9611s-0.43203-0.5904-0.68031-0.85791c-0.17537-0.18952-0.36646-0.36549-0.56939-0.52512-0.13973-0.1099-0.28339-0.21905-0.4437-0.29585-0.25176-0.12052-0.52707-0.18721-0.79867-0.25151-0.19175-0.0454-0.39284-0.0448-0.58362-0.0941-0.14987-0.0387-0.30623-0.0745-0.43691-0.15743-0.13245-0.0841-0.24286-0.20425-0.33276-0.3328-0.0558-0.0798-0.10179-0.16995-0.12316-0.26498-0.0245-0.10861-0.0408-0.22948-3e-3 -0.33406 0.0624-0.17076 0.20409-0.3127 0.355-0.41411 0.11641-0.0784 0.26103-0.10956 0.39936-0.1331 0.15315-0.026 0.31181-0.0267 0.46591-7e-3 0.19519 0.0245 0.3916 0.0711 0.56942 0.15534 0.22691 0.1074 0.42897 0.26649 0.61379 0.43637 0.18543 0.17045 0.34074 0.37257 0.48805 0.57687 0.22445 0.31143 0.42781 0.64 0.59895 0.98362 0.12529 0.25159 0.22675 0.51564 0.31054 0.78394 0.0746 0.23916 0.17003 0.73215 0.17003 0.73215zm4.7127 0.77494s0.65048-0.33482 0.99219-0.46303c0.24174-0.0907 0.49124-0.16297 0.74414-0.21497 0.17412-0.0358 0.35143-0.0692 0.52917-0.0661 0.27907 5e-3 0.55514 0.0683 0.82682 0.13228 0.19181 0.0452 0.37139 0.13564 0.56408 0.17689 0.15136 0.0324 0.30719 0.0704 0.46118 0.0546 0.15609-0.0159 0.30858-0.074 0.44648-0.14882 0.0856-0.0465 0.16703-0.1065 0.2287-0.18188 0.0704-0.0863 0.13908-0.18702 0.15166-0.29766 0.0205-0.18066-0.0427-0.37096-0.13229-0.52917-0.0691-0.12214-0.18446-0.21473-0.29765-0.29766-0.12531-0.0918-0.26692-0.16339-0.41341-0.21497-0.18556-0.0653-0.38209-0.11152-0.57879-0.11575-0.25097-5e-3 -0.50285 0.0465-0.74413 0.11574-0.2421 0.0695-0.47142 0.1808-0.69454 0.29767-0.34005 0.17812-0.66889 0.38106-0.97565 0.61184-0.22458 0.169-0.43344 0.35976-0.62841 0.56222-0.17359 0.18067-0.47953 0.57881-0.47953 0.57881zm7.9066 3.5099s-0.38524-0.16764-0.56127-0.28063c-0.34524-0.22164-0.68202-0.46892-0.95883-0.77175-0.18963-0.20745-0.46104-0.42059-0.46771-0.70158-3e-3 -0.13633 0.10017-0.27061 0.21048-0.35077 0.0841-0.0612 0.20171-0.0889 0.30402-0.0702 0.11059 0.0202 0.19364 0.11586 0.2806 0.18712 0.17903 0.14679 0.31861 0.33671 0.49111 0.49111 0.14874 0.13319 0.29482 0.27432 0.46769 0.37421 0.16672 0.0963 0.34644 0.19 0.53787 0.21047 0.2434 0.026 0.50013-0.0202 0.72497-0.11693 0.15323-0.066 0.23938-0.25069 0.3976-0.30397 0.1477-0.05 0.33725-0.0853 0.46772 0 0.11396 0.0745 0.16251 0.23802 0.16371 0.37417 9.2e-4 0.10133-0.064 0.19414-0.11688 0.28058-0.0692 0.1133-0.15286 0.22201-0.25722 0.30403-0.10965 0.0862-0.24534 0.13375-0.37418 0.1871-0.1594 0.0661-0.49111 0.1637-0.49111 0.1637s0.20205 0.17419 0.28064 0.28063c0.0891 0.12062 0.1824 0.25029 0.21047 0.39756 0.0132 0.0694-2e-3 0.14336-0.0234 0.21048-0.0389 0.11953-0.11082 0.22749-0.18711 0.3274-0.0469 0.0613-0.0985 0.1225-0.1637 0.1637-0.10844 0.0684-0.23789 0.15897-0.36249 0.12861-0.16076-0.0391-0.27832-0.2086-0.33912-0.36245-0.0486-0.12331 9e-3 -0.26534 1e-5 -0.39757-8e-3 -0.11774-0.0202-0.23586-0.0468-0.35079-0.0222-0.096-0.0417-0.19675-0.0936-0.28064-0.0232-0.0375-0.0935-0.0935-0.0935-0.0935zm-57.868-90.575a0.48557 0.48557 0 0 0-0.24405-0.12341s-0.65879-0.15582-1.1721-0.12874c-0.54153 0.0286-1.2345 0.27023-1.2345 0.27023a0.48557 0.48557 0 1 0 0.28834 0.92668s0.77739-0.21572 0.99709-0.22731c0.19147-0.0101 0.93138 0.11198 0.93138 0.11198a0.48557 0.48557 0 0 0 0.43383-0.82945zm1.0346 3.6095a0.74751 0.74751 0 0 0-0.37574-0.18994s-1.0142-0.23989-1.8044-0.19819c-0.83365 0.044-1.9004 0.416-1.9004 0.416a0.74751 0.74751 0 1 0 0.44387 1.4266s1.1968-0.33209 1.535-0.34993c0.29477-0.0155 1.4338 0.17239 1.4338 0.17239a0.74751 0.74751 0 0 0 0.66788-1.2769zm0.64329 4.3121a1.0001 1.0001 0 0 0-0.50271-0.25412s-1.3569-0.32095-2.4141-0.26516c-1.1153 0.0588-2.5425 0.55657-2.5425 0.55657a1.0001 1.0001 0 1 0 0.59385 1.9086s1.6012-0.4443 2.0536-0.46818c0.39438-0.0208 1.9183 0.23064 1.9183 0.23064a1.0001 1.0001 0 0 0 0.89356-1.7084zm-0.38468 4.6984c-0.0899-0.0828-0.18679-0.15805-0.2894-0.2229-0.19215-0.12136-0.40918-0.20971-0.63142-0.25725-0.22121-0.0473-0.45398-0.0532-0.6782-0.0234-0.21632 0.0288-0.43124 0.0937-0.62557 0.19293-0.19335 0.0988-0.35646 0.24933-0.52034 0.39172-0.15813 0.13739-0.31452 0.27998-0.44434 0.44433-0.14752 0.18677-0.2933 0.38423-0.37418 0.60804-0.033 0.0912-0.0424 0.2545-0.0446 0.29745-0.52601-0.41699-1.2809-0.37395-1.7562 0.10012-0.51663 0.51663-0.51663 1.3542 0 1.8709 0.04338 0.0427 0.08965 0.0824 0.13849 0.11877l-0.1151 0.0449s-0.446 0.33161-0.65481 0.51449c-0.16173 0.14165-0.33387 0.27746-0.46187 0.45018-0.11366 0.15336-0.20808 0.32587-0.2631 0.50865-0.0785 0.2609-0.11073 0.54119-0.0877 0.81267 0.0139 0.16351 0.068 0.32354 0.13448 0.47356 0.0641 0.1449 0.25139 0.40342 0.25139 0.40342s0.14387-0.30978 0.23972-0.45019c0.16206-0.23742 0.35566-0.45387 0.56127-0.65481 0.11885-0.11617 0.2423-0.23201 0.38587-0.31571 0.17695-0.10316 0.37448-0.17152 0.57296-0.22217 0.1752-0.0447 0.35707-0.0702 0.53788-0.0702s0.36442 0.0192 0.53788 0.0702c0.15723 0.0462 0.30423 0.12544 0.44433 0.21048 0.25923 0.15734 0.50614 0.33964 0.72496 0.54958 0.22975 0.22043 0.42132 0.47876 0.60805 0.73665 0.20547 0.28378 0.41933 0.56835 0.56127 0.88867 0.118 0.26628 0.23386 0.8419 0.23386 0.8419s0.14782-0.24839 0.18708-0.38586c0.0613-0.2148 0.06204-0.44326 0.0702-0.66651 0.0089-0.24439 2e-3 -0.49007-0.0234-0.7333-0.02771-0.26496-0.06046-0.53265-0.14032-0.7868-0.06691-0.21296-0.16509-0.41704-0.28063-0.60804-0.13236-0.21879-0.299-0.41589-0.46772-0.60804-0.11638-0.13255-0.29303-0.21756-0.37418-0.37417-0.21107-0.40737-0.25727-0.8982-0.23381-1.3564 0.01035-0.20211 0.07307-0.4037 0.1637-0.58465 0.11452-0.22863 0.28637-0.42774 0.46772-0.60804 0.17358-0.17257 0.37548-0.3172 0.58465-0.44433 0.14004-0.0851 0.28773-0.16211 0.44434-0.21048 0.14327-0.0442 0.29439-0.0719 0.44434-0.0701 0.17429 2e-3 0.35039 0.0348 0.51449 0.0935 0.15116 0.054 0.42095 0.23386 0.42095 0.23386-1e-3 0.0182-0.0608-0.12553-0.0936-0.18709-0.13423-0.25277-0.24287-0.52429-0.42095-0.74835-0.0755-0.095-0.15854-0.18541-0.24848-0.26821zm6.0781 14.52a1.5842 2.0513 55.084 0 0-2.182 0.24444 1.5842 2.0513 55.084 0 0-0.99023 1.5368c-0.0911-0.12247-0.18622-0.2609-0.22994-0.37038-0.0287-0.0725-0.0513-0.15448-0.035-0.23456 0.0226-0.11136 0.10188-0.213 0.17784-0.30465 0.0839-0.10119 0.19533-0.17895 0.29896-0.26147 0.12586-0.10015 0.26973-0.17763 0.39113-0.28297 0.0997-0.0864 0.19095-0.18204 0.27388-0.28336 0.0847-0.10318 0.15876-0.21443 0.22577-0.32813 0.0854-0.14488 0.16266-0.29487 0.22321-0.44906 0.0677-0.17245 0.1289-0.34902 0.15522-0.52791 0.0208-0.14117 0.0347-0.2882 1e-3 -0.42182-0.0766-0.30599-0.23637-0.5927-0.44948-0.82079-0.15146-0.16277-0.4237-0.29133-0.56793-0.36491-0.22107-0.10723-0.72692-0.18973-0.72692-0.18973s5e-3 0.35923 0.0481 0.5287c0.0386 0.15226 0.10993 0.29281 0.18539 0.42859 0.0906 0.16312 0.23535 0.29249 0.32018 0.45864 0.0422 0.0859 0.075 0.17811 0.0911 0.27393 0.0183 0.10782 0.0175 0.22074 5e-3 0.33239-0.0148 0.13651-0.0535 0.27271-0.095 0.40664-0.0345 0.1111-0.0733 0.2222-0.12755 0.32736-0.0628 0.12174-0.14025 0.23804-0.22701 0.34683-0.0937 0.11743-0.21142 0.21595-0.31377 0.32678-0.10746 0.11637-0.22946 0.22339-0.31424 0.35498-0.0872 0.13526-0.16682 0.2831-0.19243 0.43543-0.0294 0.17447-2e-3 0.35302 0.0499 0.5146 0.0657 0.20441 0.16884 0.40368 0.32321 0.55144 0.0738 0.0724 0.27783 0.14857 0.27783 0.14857s2e-3 0.21722 0.0437 0.31203c0.0855 0.19582 0.23693 0.36139 0.40622 0.49349 0.13414 0.10401 0.29203 0.19161 0.46582 0.22428 0.15173 0.0285 0.31808 5e-3 0.47509-0.0305 0.15276-0.0342 0.29522-0.11192 0.44153-0.17263 0.13936-0.0578 0.27237-0.13444 0.41492-0.18188 0.13204-0.0439 0.26791-0.0765 0.40383-0.0935 0.11736-0.0146 0.23509-0.0128 0.35127-7e-3 0.1401 7e-3 0.28124 0.0179 0.41445 0.0511 0.10902 0.027 0.21518 0.0653 0.31018 0.11957 0.0844 0.0481 0.15956 0.11077 0.22594 0.17969 0.12773 0.13622 0.1988 0.31633 0.31985 0.45816 0.10148 0.11761 0.20902 0.23364 0.33904 0.32193 0.14432 0.0986 0.47971 0.22742 0.47971 0.22742s0.097-0.50328 0.0725-0.74776c-0.0194-0.16078-0.0468-0.46036-0.14675-0.65891-0.14064-0.27867-0.35448-0.52763-0.61551-0.70488-0.11393-0.0774-0.25669-0.11514-0.39638-0.14431-0.17698-0.037-0.36416-0.0409-0.54936-0.0368-0.16564 4e-3 -0.33273 0.025-0.49817 0.0552-0.12984 0.0237-0.25978 0.0549-0.38585 0.0988-0.12366 0.043-0.2449 0.0957-0.36037 0.15949-0.14072 0.0777-0.26313 0.18589-0.40049 0.26961-0.11318 0.0688-0.22457 0.14666-0.3485 0.19045-0.11217 0.0396-0.23496 0.0791-0.34729 0.0619-0.0807-0.0124-0.14999-0.0617-0.2081-0.11377-0.0882-0.0783-0.18516-0.21557-0.26841-0.3435a1.5842 2.0513 55.084 0 0 1.7839-0.39968 1.5842 2.0513 55.084 0 0 0.98111-1.9649zm0.50478-2.7978a0.72497 0.72497 0 0 1-1.0253 0 0.72497 0.72497 0 0 1 0-1.0253 0.72497 0.72497 0 0 1 1.0253 0 0.72497 0.72497 0 0 1 0 1.0253zm0.92605-1.7859a0.72497 0.72497 0 0 1-1.0253 0 0.72497 0.72497 0 0 1 7e-6 -1.0253 0.72497 0.72497 0 0 1 1.0253 0 0.72497 0.72497 0 0 1 0 1.0253zm-5.9201 9.2273s0.5907-0.14898 0.89297-0.16536c0.44156-0.0239 0.88679 0.0261 1.3229 0.0992 0.32042 0.0537 0.64281 0.12277 0.94258 0.24804 0.28958 0.12103 0.55999 0.2902 0.81028 0.47956 0.25497 0.19289 0.47808 0.42617 0.69454 0.66145 0.19641 0.21352 0.38256 0.43813 0.54567 0.67804 0.13184 0.19392 0.26651 0.39166 0.34727 0.61183 0.0715 0.19484 0.11349 0.4043 0.11576 0.61186 1e-3 0.13414-0.0119 0.27422-0.0661 0.39686-0.054 0.12203-0.13428 0.24445-0.24803 0.31422-0.11982 0.0734-0.27428 0.10245-0.41342 0.0827-0.15378-0.0218-0.30029-0.10854-0.41341-0.21498-0.16397-0.15406-0.24268-0.37957-0.34727-0.57877-0.12386-0.23587-0.2059-0.49224-0.33072-0.72761-0.10898-0.20543-0.23279-0.40316-0.36381-0.59531-0.12857-0.18854-0.25271-0.38367-0.41337-0.54574-0.17158-0.173-0.37813-0.30827-0.57881-0.44645-0.19155-0.13187-0.39042-0.2538-0.59531-0.3638-0.16081-0.0863-0.32594-0.16557-0.49609-0.23152-0.1723-0.0668-0.34831-0.12742-0.52917-0.16536-0.19541-0.041-0.39957-0.0268-0.59531-0.0661-0.0958-0.0192-0.28116-0.0827-0.28116-0.0827zm-3.0212 0.0124s0.40795-0.22605 0.59635-0.36249c0.25579-0.18525 0.48702-0.40264 0.72012-0.61572 0.18667-0.17063 0.36287-0.3524 0.54276-0.53016 0.13329-0.13174 0.25622-0.2745 0.39756-0.39757 0.15109-0.13155 0.29619-0.28145 0.47941-0.36248 0.11606-0.0513 0.24778-0.0814 0.37418-0.0702 0.12043 0.0107 0.24249 0.056 0.3391 0.12863 0.0935 0.0703 0.18689 0.16609 0.21049 0.28062 0.0235 0.11387-0.0278 0.23615-0.0819 0.3391-0.0956 0.18203-0.25623 0.32467-0.41138 0.45958-0.13039 0.11339-0.28047 0.20308-0.43051 0.28878-0.274 0.15651-0.56018 0.29316-0.8536 0.40926-0.30031 0.11883-0.60898 0.21998-0.92374 0.29232-0.31482 0.0724-0.95885 0.14033-0.95885 0.14033zm-2.2713-11.217c-0.18435-8.5e-4 -0.36724 0.015-0.54674 0.0506-0.55863 0.11095-1.05 0.48397-1.4733 0.86506-0.35379 0.31852-0.65388 0.71462-0.84801 1.1493-0.1376 0.30803-0.19823 0.65235-0.21032 0.99011a1.5544 1.5544 0 0 0-5.167e-4 0.0134c-2.307e-4 7e-3 -0.00136 0.0145-0.00155 0.0217-2.14e-5 8.5e-4 2.06e-5 2e-3 0 3e-3a1.5544 1.5544 0 0 0 0.014986 0.32608c5.696e-4 4e-3 0.00146 9e-3 0.00207 0.0129a1.5544 1.5544 0 0 0 0 2e-3 1.5544 1.5544 0 0 0 0.01602 0.0806c0.00853 0.0427 0.019066 0.0844 0.032039 0.12558a1.5544 1.5544 0 0 0 0.00103 4e-3 1.5544 1.5544 0 0 0 0.032556 0.093 1.5544 1.5544 0 0 0 0.0031 9e-3c6.56e-5 1.5e-4 -6.56e-5 3.6e-4 0 5.1e-4 2.265e-4 5.2e-4 8.051e-4 1e-3 0.00103 2e-3a1.5544 1.5544 0 0 0 0.34933 0.5364 1.5544 1.5544 0 0 0 0.23564 0.19276 1.5544 1.5544 0 0 0 0.00155 1e-3 1.5544 1.5544 0 0 0 1.9611-0.19379 1.5544 1.5544 0 0 0 0-2.1983 1.5544 1.5544 0 0 0-0.10749-0.0977c8e-3 -5e-3 0.0171-0.0151 0.02481-0.0196 0.22827-0.13521 0.49808-0.21731 0.76326-0.2253 0.30324-0.01 0.60842 0.0837 0.8878 0.20205 0.42602 0.1804 0.83612 0.4299 1.1627 0.75758 0.4037 0.40501 0.75619 0.89649 0.93173 1.4407 0.20887 0.64761 0.23456 1.3713 0.1018 2.0386-0.1419 0.71329-0.54468 1.3574-0.93431 1.9714-0.28941 0.45613-0.66644 0.85205-1.0294 1.2521-0.34815 0.38376-0.71793 0.74826-1.0992 1.0992-0.39821 0.36652-0.82682 0.69855-1.2392 1.049-0.31243 0.26553-0.64039 0.51412-0.93586 0.7984-0.38954 0.37491-0.75202 0.77824-1.0992 1.1927-0.15718 0.18764-0.44442 0.58446-0.44442 0.58446l-0.069763 0.0703 0.14263-0.0822c0.11251-0.0175 0.78716-0.12239 1.1632-0.20774 0.52973-0.1202 1.0389-0.32338 1.5704-0.43511 0.47793-0.10045 0.96388-0.16382 1.45-0.21033 0.33404-0.032 0.67006-0.049 1.0056-0.047 0.39824 2e-3 0.79693 0.0258 1.1927 0.0703 0.28272 0.0318 0.57053 0.0549 0.84181 0.14056 0.30087 0.0951 0.58314 0.24691 0.8537 0.40928 0.34426 0.20657 0.66331 0.4546 0.97048 0.71313 0.42179 0.35503 0.83299 0.72835 1.1927 1.1462 0.29918 0.34748 0.58803 0.7134 0.7953 1.1224 0.17828 0.35181 0.27974 0.73945 0.37414 1.1224 0.08121 0.32975 0.1513 0.66623 0.1633 1.0056 0.0091 0.25815-0.01836 0.51838-0.06976 0.77153-0.04249 0.20944-0.09824 0.42047-0.19534 0.61082-0.13331 0.26114-0.33748 0.48014-0.52142 0.70848-0.23197 0.28797-0.4697 0.57316-0.73329 0.83251-0.35633 0.35116-0.75058 0.66234-1.141 0.97513-0.10388 0.0833-0.18635 0.14126-0.31936 0.23978-0.21473-0.25517-0.48676-0.47108-0.81132-0.63149-0.86511-0.42758-1.6431-0.59242-2.651-0.11989l-0.0026-0.0129s-1.1863 0.57587-1.802 0.67644c-0.20815 0.034-0.44539 0.0579-0.60306-0.0305-0.11656-0.0653-0.1624-0.20355-0.18448-0.33073-0.0827-0.47509 0.21032-1.5136 0.21032-1.5136s-1.0399 0.49303-1.4206 0.8816c-0.25325 0.25849-0.44174 0.58384-0.50591 0.89503-0.0672 0.32589-3.788e-4 0.65542 0.14676 0.9214 0.18557 0.33287 0.46909 0.65962 0.88057 0.76997 0.4403 0.11805 0.99515-0.016 1.4857-0.17259 0.6871-0.21938 1.8991-1.0143 1.9544-1.0506 0.0246-0.0103 0.04843-0.0226 0.07183-0.0357 0.64308-0.35853 1.4054-0.40948 2.0154-0.10801 0.22127 0.10941 0.40507 0.26096 0.54932 0.4408-1.0489-0.37679-2.5016-0.16234-3.8039 0.56173-1.4422 0.80456-2.4368 2.087-2.5301 3.2628 1.0481 0.54181 2.6635 0.37192 4.1083-0.43202 1.3006-0.7274 2.2472-1.8505 2.4779-2.9409 0.0774 0.21754 0.10966 0.45463 0.0863 0.70074-0.0642 0.67734-0.50826 1.2987-1.1514 1.6573-0.022 0.0121-0.04328 0.0253-0.06408 0.0393-0.0481 0.0222-1.3755 0.64069-1.926 1.1121-0.39111 0.33497-0.79602 0.73643-0.92708 1.1731-0.12247 0.40803 0.0047 0.82117 0.1912 1.1534 0.14798 0.26552 0.39442 0.49606 0.70693 0.6103 0.29844 0.10903 0.67429 0.11885 1.0273 0.0393 0.5307-0.11956 1.4971-0.74466 1.4971-0.74466s-1.0377-0.29584-1.3984-0.61598c-0.0968-0.0854-0.19023-0.19767-0.18448-0.33125 8e-3 -0.1806 0.15312-0.36943 0.29146-0.52865 0.40926-0.47078 1.5224-1.1777 1.5224-1.1777l-0.0093-8e-3c0.93185-0.60893 1.2002-1.358 1.2914-2.3187-0.0018-0.30915-0.03356-0.61661-0.09974-0.89969 0.12835-0.0725 0.27814-0.15942 0.37569-0.22324 0.24536-0.16052 0.48052-0.33702 0.70848-0.52142 0.21364-0.17277 0.41734-0.35799 0.6165-0.54725 0.16378-0.15614 0.33054-0.31081 0.47594-0.48421 0.16057-0.1915 0.30336-0.39864 0.4346-0.61133 0.22844-0.37016 0.48987-0.73507 0.61082-1.1529 0.1102-0.38072 0.09095-1.1855 0.09095-1.1855s0.20543 0.37784 0.25683 0.58446c0.0771 0.31099 0.07228 0.63865 0.07028 0.95912-0.0015 0.2227-0.01646 0.44666-0.05736 0.66559-0.04101 0.21973-0.11797 0.43131-0.18707 0.64388-0.08199 0.25218-0.17557 0.5006-0.27027 0.74828-0.14109 0.36915-0.27142 0.7436-0.4439 1.0992-0.16458 0.33928-0.35867 0.66429-0.56121 0.98237-0.205 0.32197-0.43919 0.62464-0.66094 0.93534-0.24576 0.34429-0.49801 0.68375-0.74259 1.0289-0.25256 0.3564-0.53118 0.69685-0.74828 1.0759-0.11093 0.19371-0.2219 0.39286-0.2806 0.60823-0.0824 0.30234-0.10253 0.62211-0.09353 0.93535 0.0043 0.14989 0.01338 0.30566 0.07028 0.44441 0.09455 0.23055 0.18778 0.57732 0.43512 0.60772 0.0086 1e-3 0.01412-0.022 0.01912-0.016 0.04391 0.0504-0.10206 0.0865-0.14986 0.13332-0.08002 0.0783-0.15793 0.15939-0.22893 0.24598-0.08338 0.10177-0.16458 0.20655-0.23048 0.3204-0.09653 0.16686-0.18486 0.34164-0.23926 0.52658-0.0426 0.14501-0.07063 0.2975-0.06563 0.44855 0.0049 0.13257 0.0291 0.26893 0.0863 0.38861 0.04646 0.0973 0.11984 0.18281 0.20154 0.25321 0.05436 0.0466 0.11985 0.0805 0.18655 0.10645 0.08509 0.0331 0.17607 0.0545 0.26717 0.0605 0.14013 0.01 0.28197-8e-3 0.41961-0.0357 0.10485-0.0214 0.20399-0.0645 0.30489-0.10025 0.11764-0.0417 0.35037-0.13333 0.35037-0.13333s0.04933 0.43873 0.09353 0.65474c0.05539 0.27073 0.10607 0.54679 0.21446 0.80099 0.11706 0.27458 0.26559 0.54243 0.46354 0.76584 0.24306 0.27426 0.53948 0.51031 0.86506 0.67851 0.26734 0.13813 0.56781 0.21405 0.86558 0.25735 0.26228 0.0382 0.53419 0.0484 0.79478 0 0.21351-0.0396 0.42017-0.12551 0.60823-0.23409 0.1824-0.10533 0.33901-0.25203 0.49144-0.39739 0.14395-0.13702 0.27242-0.28989 0.39739-0.44442 0.12632-0.15616 0.26662-0.30646 0.35502-0.48679 0.11468-0.23405 0.19094-0.49207 0.21704-0.75138 0.0208-0.2066 0.01277-0.42272-0.05013-0.62063-0.0395-0.12421-0.12327-0.23116-0.19947-0.33693-0.08466-0.11662-0.16841-0.24-0.2837-0.3266-0.14391-0.10816-0.31305-0.19264-0.48989-0.22634-0.18986-0.0363-0.39817-0.0354-0.57929 0.032-0.24632 0.0917-0.45201 0.28307-0.62425 0.48162-0.08554 0.0986-0.19275 0.34055-0.19275 0.34055s-0.13117-0.0149-0.18707-0.0465c-0.23986-0.13577-0.44182-0.34946-0.58498-0.58498-0.17418-0.2865-0.23366-0.63073-0.30386-0.95859-0.08541-0.39901-0.12866-0.80807-0.14056-1.216-0.012-0.41363 0.02208-0.82872 0.07028-1.2397 0.05159-0.44043 0.13064-0.87827 0.2341-1.3095 0.12542-0.52276 0.28473-1.0381 0.46767-1.5436 0.14979-0.41388 0.33489-0.81397 0.51418-1.216 0.17189-0.38536 0.3646-0.76147 0.53795-1.1462 0.28259-0.62712 0.81856-1.8939 0.81856-1.8939s0.05303 0.37356 0.04703 0.5612c-0.01036 0.31513-0.08626 0.62476-0.14056 0.93535-0.06163 0.35239-0.12812 0.70397-0.21032 1.0521-0.10209 0.43252-0.22737 0.85933-0.35088 1.2862-0.11103 0.38373-0.25138 0.75929-0.35088 1.1462-0.08529 0.33167-0.17502 0.66497-0.21032 1.0056-0.0417 0.4032-0.0608 0.81517 0 1.216 0.03548 0.23402 0.1004 0.46837 0.21032 0.67799 0.17015 0.32457 0.38529 0.64576 0.67851 0.86558 0.20154 0.15108 0.4594 0.21031 0.70125 0.28061 0.24372 0.0708 0.74879 0.14004 0.74879 0.14004s-0.6473-1.1283-0.88884-1.7301c-0.11209-0.27924-0.21405-0.56781-0.25735-0.86558-0.06289-0.43199-0.0516-0.876 0-1.3095 0.05496-0.46186 0.24193-0.89934 0.32763-1.3565 0.09702-0.51796 0.13792-1.0448 0.21032-1.5668 0.04541-0.32761 0.11404-0.65266 0.14004-0.98237 0.0398-0.5052 0.06107-1.0144 0.02377-1.5198-0.03896-0.52784-0.14111-1.0505-0.25735-1.5668-0.13004-0.57769-0.26972-1.1581-0.49093-1.7074-0.23709-0.58869-0.56536-1.1376-0.88884-1.6836-0.28102-0.47432-0.56934-0.94793-0.91209-1.3798-0.24679-0.311-0.52822-0.59476-0.81855-0.86558-0.33208-0.30979-0.69349-0.58647-1.0521-0.86507-0.34353-0.26686-0.67818-0.55066-1.0526-0.77204-0.52539-0.3106-1.0826-0.57494-1.6604-0.77153-0.37062-0.1261-0.75706-0.21005-1.1457-0.25735-0.36379-0.0443-0.73272-0.0283-1.0992-0.0233-0.25795 4e-3 -0.51639 0.0115-0.77308 0.0372-0.24524 0.0246-0.67276 0.10032-0.74776 0.11369 0.57988-0.47813 1.0991-0.9813 1.5906-1.5307 0.59768-0.668 1.1561-1.3789 1.6221-2.1446 0.2703-0.44404 0.51615-0.91148 0.67283-1.4072 0.16101-0.50938 0.26484-1.046 0.26562-1.5803 7.3e-4 -0.50204-0.09722-1.0064-0.24495-1.4862-0.10364-0.33667-0.25763-0.66045-0.44442-0.95911-0.29903-0.47811-0.65634-0.92689-1.0692-1.311-0.47616-0.44304-0.99171-0.88239-1.5968-1.1209-0.51078-0.2013-1.0753-0.35196-1.6283-0.35449zm-0.12396 14.529s1.1711 0.0793 1.7138 0.28055c0.53585 0.19873 1.0389 0.51068 1.4635 0.89324 0.16576 0.14935 0.29711 0.33741 0.40617 0.53203 0.17119 0.30569 0.27676 0.6452 0.37904 0.98026 0.0723 0.23653 0.0876 0.48849 0.16469 0.72348 0.0605 0.18463 0.11788 0.37759 0.23276 0.53443 0.11599 0.15912 0.2752 0.28793 0.44356 0.3901 0.10455 0.0635 0.22106 0.11386 0.34179 0.13302 0.13793 0.022 0.29071 0.0327 0.41865-0.0236 0.20905-0.0915 0.37532-0.28072 0.49043-0.4777 0.0888-0.15214 0.11629-0.33575 0.13468-0.51091 0.0203-0.19389 9e-3 -0.3927-0.0281-0.58417-0.0465-0.24251-0.12054-0.48482-0.24025-0.70081-0.15272-0.27561-0.37903-0.50517-0.5958-0.73383-0.22082-0.23354-0.45564-0.45705-0.71496-0.64693-0.33313-0.2439-0.68944-0.46355-1.0696-0.62458-0.31159-0.13197-0.64525-0.20996-0.97763-0.27349-0.29897-0.0571-0.60375-0.0984-0.90813-0.0957-0.55569 5e-3 -1.6546 0.20462-1.6546 0.20462zm-1.9611 1.4382s0.5904 0.43203 0.85791 0.6803c0.18952 0.17538 0.36549 0.36647 0.52513 0.56939 0.10989 0.13973 0.21905 0.2834 0.29584 0.44371 0.12053 0.25176 0.18721 0.52707 0.25152 0.79867 0.0454 0.19175 0.0448 0.39283 0.0941 0.58362 0.0387 0.14986 0.0744 0.30622 0.15742 0.43691 0.0841 0.13245 0.20425 0.24286 0.33281 0.33276 0.0798 0.0558 0.16995 0.10179 0.26497 0.12316 0.10862 0.0245 0.22948 0.0408 0.33406 3e-3 0.17076-0.0624 0.31269-0.20411 0.41412-0.355 0.0783-0.11643 0.10955-0.26103 0.13309-0.39936 0.026-0.15313 0.0267-0.31181 7e-3 -0.46591-0.0245-0.19519-0.0712-0.3916-0.15535-0.56943-0.1074-0.2269-0.26648-0.42896-0.43637-0.61377-0.17045-0.18545-0.37257-0.34076-0.57687-0.48806-0.31142-0.22445-0.64-0.42782-0.98362-0.59895-0.25159-0.1253-0.51564-0.22675-0.78393-0.31053-0.23917-0.0747-0.73216-0.17004-0.73216-0.17004zm-0.77494-4.7127s0.33482-0.65048 0.46303-0.99219c0.0907-0.24174 0.16297-0.49124 0.21497-0.74414 0.0358-0.17412 0.0692-0.35144 0.0662-0.52917-5e-3 -0.27907-0.0683-0.55514-0.13229-0.82682-0.0452-0.19181-0.13564-0.37139-0.17688-0.56408-0.0324-0.15136-0.0704-0.30719-0.0546-0.46119 0.016-0.15606 0.074-0.30857 0.14882-0.44648 0.0464-0.0856 0.10648-0.16704 0.18191-0.22867 0.0862-0.0704 0.18701-0.13909 0.29766-0.15166 0.18065-0.0205 0.37095 0.0427 0.52917 0.13229 0.12213 0.0691 0.21473 0.18446 0.29765 0.29765 0.0918 0.12531 0.1634 0.26691 0.21498 0.41342 0.0654 0.18556 0.11151 0.38208 0.11575 0.57878 5e-3 0.25096-0.0465 0.50285-0.11575 0.74413-0.0695 0.2421-0.18079 0.47142-0.29766 0.69454-0.17812 0.34005-0.38106 0.66889-0.61185 0.97565-0.16898 0.22459-0.35976 0.43345-0.56224 0.62838-0.18053 0.17374-0.57878 0.47956-0.57879 0.47956zm-3.5099-7.9066s0.16764 0.38524 0.28064 0.56126c0.22164 0.34525 0.46891 0.68203 0.77174 0.95883 0.20745 0.18964 0.42059 0.46104 0.70158 0.46772 0.13633 3e-3 0.27061-0.10017 0.35079-0.21047 0.0612-0.0841 0.0888-0.20171 0.0702-0.30402-0.0202-0.11058-0.11586-0.19364-0.18712-0.2806-0.14679-0.17903-0.33671-0.3186-0.49111-0.49111-0.13318-0.14874-0.27432-0.29482-0.37421-0.46768-0.0963-0.16673-0.19-0.34645-0.21047-0.53788-0.026-0.2434 0.0202-0.50012 0.11692-0.72497 0.066-0.15325 0.25055-0.23952 0.30402-0.39756 0.05-0.14768 0.0853-0.33725 0-0.46773-0.0745-0.11395-0.23803-0.16251-0.37417-0.16371-0.10131-8.9e-4 -0.19413 0.0641-0.28059 0.11689-0.11327 0.0692-0.22198 0.15287-0.30401 0.25724-0.0862 0.10965-0.13373 0.24535-0.18709 0.37418-0.066 0.15942-0.1637 0.49111-0.1637 0.49111s-0.1742-0.20206-0.28064-0.28063c-0.12062-0.0891-0.25029-0.18241-0.39756-0.21048-0.0694-0.0132-0.14335 2e-3 -0.21047 0.0234-0.11952 0.0389-0.22752 0.11079-0.32741 0.1871-0.0613 0.0469-0.12251 0.0984-0.16371 0.1637-0.0684 0.10841-0.15894 0.23791-0.12861 0.36248 0.0391 0.16076 0.2086 0.27832 0.36245 0.33912 0.12331 0.0486 0.26534-9e-3 0.39758 0 0.11769 8e-3 0.23584 0.0202 0.35078 0.0468 0.0961 0.0222 0.19675 0.0417 0.28064 0.0935 0.0375 0.0232 0.0935 0.0935 0.0935 0.0935zm-1.2198 3.7065c-0.33685-0.017-0.99167 0.19844-0.99167 0.19844s0.069209 0.0279 0.15348 0.0667c0.0842 0.0388 0.1834 0.0885 0.2434 0.13178 0.29086 0.2097 0.53628 0.48099 0.76068 0.76068 0.35977 0.44849 0.73836 0.91105 0.92552 1.4547 0.11178 0.32465 0.083136 0.68283 0.099735 1.0258 0.0245 0.50651 0.0467 1.0164 0 1.5214-0.0609 0.65884-0.25635 1.2984-0.3638 1.9513-0.10126 0.61533-0.16369 1.2362-0.26458 1.8516-0.0979 0.59746-0.24001 1.1879-0.33125 1.7864-0.0837 0.54884-0.1342 1.1022-0.19792 1.6536-0.0688 0.59502-0.12662 1.1913-0.19844 1.7859-0.0613 0.50773-0.16529 1.011-0.19844 1.5214-0.0357 0.55005-0.01021 1.1025 0 1.6536 0.010999 0.59563-9.525e-4 1.194 0.066146 1.7859 0.0595 0.52419 0.17582 1.041 0.29714 1.5544 0.10274 0.43475 0.20753 0.87153 0.36432 1.2898 0.16271 0.43406 0.36225 0.85526 0.5948 1.2563 0.22245 0.38361 0.49576 0.7367 0.76119 1.0919 0.25354 0.33927 0.52234 0.66653 0.79375 0.99167 0.29046 0.34789 0.89297 1.0253 0.89297 1.0253s-0.90299-0.0696-1.3229 0.0667c-0.28792 0.0935-0.54243 0.28632-0.76068 0.49609-0.13691 0.13126-0.26344 0.2859-0.33125 0.46302-0.0357 0.0933-0.078956 0.20927-0.032556 0.29766 0.0756 0.14415 0.42995 0.23151 0.42995 0.23151s-0.47375 0.12754-0.69453 0.23151c-0.1882 0.0886-0.38932 0.17674-0.52917 0.33073-0.13267 0.14591-0.29615 0.33449-0.26458 0.52916 0.0275 0.16929 0.19974 0.31225 0.36329 0.3638 0.0454 0.0143 0.092053 0.0233 0.13849 0.0289 0.3251 0.0392 0.68918-0.0779 0.9865-0.22789 0.58854-0.29684 1.1661-0.59675 1.7854-0.66094 0.48297-0.05 0.97726-0.0166 1.4557 0.0661 0.55668 0.0963 1.1031 0.26887 1.6206 0.49558 0.0573 0.0251 0.1126 0.0534 0.16743 0.0837 0.38373 0.21235 0.71571 0.5322 1.1302 0.67489-0.43745-0.0138-0.87658 0.0293-1.3095 0.0935-0.34793 0.0516-0.69682 0.11904-1.0294 0.23357-0.55392 0.19076-1.0889 0.44504-1.5901 0.74828-0.27612 0.1671-0.53023 0.37069-0.77153 0.58497-0.43691 0.38812-0.8415 0.81476-1.2165 1.263-0.35819 0.42818-0.69658 0.87618-0.98185 1.356-0.30472 0.51249-0.58543 1.0476-0.77205 1.6138-0.14166 0.42978-0.22072 0.88171-0.25735 1.3328-0.0442 0.54411-0.012674 1.0945 0.047026 1.6371 0.0495 0.44981 0.16165 0.89095 0.25735 1.3332 0.0848 0.3918 0.22556 0.7724 0.2806 1.1694 0.0536 0.3864 0.10839 0.78381 0.046509 1.1689-0.0423 0.26305-0.13639 0.5243-0.2806 0.74827-0.0835 0.12978-0.188 0.2608-0.32711 0.32763-0.12724 0.0612-0.42116 0.0471-0.42116 0.0471s0.085104 0.19246 0.16381 0.25683c0.16812 0.13742 0.39571 0.18939 0.60823 0.23408 0.16036 0.0337 0.32996 0.0539 0.49093 0.0233 0.27441-0.0523 0.54807-0.16716 0.76378-0.34467 0.25287-0.20813 0.42782-0.50544 0.56896-0.801 0.0872-0.18262 0.16381-0.58497 0.16381-0.58497s0.39948 0.29006 0.60823 0.42116c0.28082 0.17643 0.56372 0.3524 0.86506 0.49094 0.18818 0.0865 0.3893 0.14285 0.58498 0.21082 0.19775 0.0687 0.39138 0.15213 0.59531 0.19947 0.28717 0.0666 0.58218 0.12218 0.87695 0.11731 0.31705-5e-3 0.62917-0.0849 0.93793-0.15708 0.22844-0.0534 0.45281-0.1251 0.67386-0.20362 0.21533-0.0765 0.43052-0.15661 0.63407-0.26046 0.34299-0.17497 0.65122-0.41119 0.98237-0.60769 0.22881-0.13579 0.45768-0.27194 0.69402-0.39431 0.13247-0.0686 0.26199-0.14865 0.40514-0.19069 0.22635-0.0665 0.46607-0.083 0.70177-0.0935 0.17928-8e-3 0.36142-0.0111 0.53744 0.0238 0.17898 0.0356 0.36715 0.0797 0.5147 0.18706 0.14369 0.10467 0.32763 0.42064 0.32763 0.42064s0.06726-0.13642 0.06976-0.21032c7e-3 -0.21264-0.08213-0.41976-0.16071-0.61754-0.0736-0.1852-0.16096-0.37041-0.28732-0.52451-0.14744-0.17959-0.32626-0.34356-0.53382-0.44804-0.15032-0.0756-0.32342-0.10808-0.49144-0.11729-0.12551-7e-3 -0.37414 0.047-0.37414 0.047s0.11246-0.24392 0.14056-0.37413c0.0247-0.11456 0.06445-0.24119 0.02325-0.35089-0.0504-0.13414-0.17877-0.23391-0.30386-0.30384-0.1469-0.0821-0.32363-0.12965-0.49144-0.11732-0.16749 0.0124-0.32746 0.0947-0.46767 0.18706-0.20251 0.13351-0.3427 0.34322-0.51418 0.5147-0.10135 0.10136-0.20024 0.20536-0.30437 0.30387-0.15216 0.14436-0.29134 0.3076-0.46767 0.42116-0.27889 0.17952-0.5882 0.3261-0.91209 0.39738-0.34268 0.0754-0.70227 0.0505-1.0521 0.0238-0.26835-0.0204-0.7953-0.14057-0.7953-0.14057s0.54138-0.11478 0.77205-0.25733c0.25321-0.15648 0.44567-0.39855 0.63097-0.63151 0.18312-0.23019 0.33511-0.48591 0.46819-0.74827 0.15196-0.29948 0.30199-0.60735 0.37414-0.93533 0.0637-0.28969 0.10878-0.59883 0.04651-0.88884-0.0608-0.28292-0.39739-0.77152-0.39739-0.77152s-0.22088 0.57568-0.37414 0.84179c-0.13933 0.24186-0.29693 0.47784-0.49144 0.678-0.23995 0.24736-0.51088 0.4753-0.81804 0.63148-0.34743 0.17669-0.73407 0.30118-1.1229 0.32763-0.36956 0.0251-0.74055-0.071-1.0992-0.1638-0.25792-0.0668-0.52429-0.13637-0.74827-0.28062-0.25025-0.16115-0.48372-0.37309-0.63149-0.63148-0.21591-0.37748-0.29367-0.82939-0.32711-1.263-0.0362-0.46868 0.025024-0.94725 0.14004-1.403 0.0992-0.39303 0.27296-0.76687 0.46767-1.1224 0.24629-0.44976 0.53812-0.87951 0.87798-1.2635 0.41334-0.46706 0.86998-0.91014 1.3953-1.2464 0.40654-0.26029 0.86949-0.42799 1.3286-0.57723 0.54679-0.17773 1.1121-0.31139 1.6836-0.37413 0.55791-0.0612 1.1266-0.0686 1.6836 0 0.63799 0.0786 1.2798 0.21584 1.8712 0.46767 0.49949 0.21268 0.94639 0.53859 1.3798 0.86558 0.6697 0.50539 1.2898 1.0782 1.8707 1.6836 0.33295 0.3468 0.91984 1.111 0.91984 1.111 0.49274 1.0617 0.95311 2.327 1.1741 3.5553 0.0791 0.43972 0.04961 1.3395 0.04961 1.3395s-0.43729-0.46289-0.61185-0.3142c-0.37952 0.3233 0.34974 0.93663 0.46302 1.4221 0.19237 0.82442 0.37396 1.6665 0.3638 2.513-0.0154 1.285-0.57822 3.6232-0.66352 3.9714-0.10862-0.89361-0.40808-2.5311-1.1922-2.9926-0.5114-0.30091-1.7539 0.30387-1.7539 0.30387s-0.87146-0.29821-1.1694-0.0465c-0.30322 0.25614-0.15193 1.1808-0.15193 1.1808s0.82007-0.0835 1.0826 0.17052c1.1046 1.0698 0.863 4.532 0.863 4.532s3.4623-0.24156 4.532 0.863c0.25404 0.26257 0.17053 1.0826 0.17053 1.0826s0.92468 0.15131 1.1808-0.15193c0.25171-0.29797-0.04651-1.1694-0.04651-1.1694s0.6048-1.2425 0.30386-1.7539c-0.46144-0.7841-2.0985-1.0836-2.9921-1.1922 0.3481-0.0853 2.6859-0.64812 3.9708-0.66352 0.84651-0.0101 1.6886 0.17195 2.513 0.36433 0.48552 0.11329 1.0989 0.84204 1.4221 0.46249 0.14872-0.17457-0.31419-0.61185-0.31419-0.61185s0.89972-0.0295 1.3395 0.0496c1.2283 0.22098 2.4937 0.68136 3.5553 1.1741 0 0 0.76409 0.58706 1.111 0.91985 0.60538 0.58092 1.1787 1.2015 1.6841 1.8712 0.32698 0.43336 0.65238 0.88027 0.86506 1.3798 0.25183 0.59145 0.38907 1.2327 0.46767 1.8707 0.0686 0.55706 0.0613 1.1257 0 1.6836-0.06273 0.57152-0.19642 1.1373-0.37414 1.6841-0.14924 0.45911-0.31643 0.92155-0.57671 1.3281-0.3363 0.52527-0.77936 0.98245-1.2464 1.3958-0.38398 0.33989-0.81424 0.63119-1.264 0.87749-0.35555 0.19471-0.72938 0.36846-1.1224 0.46765-0.45577 0.11502-0.93434 0.17677-1.403 0.14058-0.43358-0.0335-0.88548-0.11174-1.263-0.32764-0.25837-0.14779-0.47034-0.38123-0.63149-0.63148-0.14424-0.22399-0.2138-0.49038-0.2806-0.74827-0.0928-0.35861-0.18902-0.72961-0.16381-1.0992 0.02647-0.38889 0.15096-0.77499 0.32763-1.1224 0.15616-0.30721 0.38432-0.57846 0.63149-0.81857 0.20018-0.19449 0.43614-0.3516 0.678-0.4909 0.26611-0.15328 0.84181-0.37468 0.84181-0.37468s-0.48861-0.33658-0.77153-0.39738c-0.29002-0.0623-0.59912-0.0167-0.88883 0.047-0.32799 0.0722-0.63586 0.22219-0.93534 0.37414-0.26235 0.13309-0.51808 0.28456-0.74828 0.46768-0.23296 0.18529-0.475 0.37828-0.63148 0.63148-0.14257 0.23067-0.25735 0.77153-0.25735 0.77153s-0.11954-0.52695-0.14004-0.79531c-0.0267-0.34983-0.05214-0.70943 0.02326-1.0521 0.07128-0.32387 0.21789-0.63317 0.39739-0.9121 0.11354-0.17631 0.27714-0.31517 0.42116-0.46767 0.09849-0.10414 0.20252-0.20252 0.30386-0.30385 0.17149-0.1715 0.3812-0.31218 0.5147-0.5147 0.09239-0.1402 0.17477-0.30019 0.18707-0.46767 0.0123-0.1678-0.03469-0.34407-0.11679-0.49094-0.06993-0.12507-0.17024-0.25397-0.30437-0.30437-0.1097-0.0412-0.23633 0-0.35088 0.0238-0.13019 0.0281-0.37414 0.14004-0.37414 0.14004s0.05403-0.24863 0.04703-0.37414c-0.0092-0.16802-0.04119-0.3406-0.11679-0.49091-0.10447-0.20759-0.2689-0.38693-0.44855-0.53436-0.15409-0.12636-0.33927-0.2138-0.52452-0.28731-0.19776-0.0786-0.40487-0.16772-0.61754-0.1607-0.07389 3e-3 -0.21032 0.0703-0.21032 0.0703s0.31651 0.18343 0.42116 0.3271c0.10739 0.14756 0.15147 0.33573 0.18707 0.5147 0.035 0.17602 0.03126 0.35867 0.02326 0.53795-0.0105 0.23572-0.02704 0.4749-0.09354 0.70125-0.04201 0.14317-0.12157 0.27316-0.19017 0.40566-0.12235 0.23635-0.25852 0.46466-0.39429 0.6935-0.19652 0.33115-0.43325 0.63936-0.60823 0.98237-0.10384 0.20354-0.18343 0.41923-0.25993 0.63458-0.07851 0.22106-0.15072 0.44542-0.20412 0.67386-0.07215 0.30877-0.15158 0.6209-0.15658 0.93793-0.0049 0.29477 0.05019 0.58978 0.11679 0.87696 0.04733 0.20394 0.13129 0.39759 0.19999 0.59531 0.06797 0.19569 0.12382 0.39627 0.21032 0.58446 0.13853 0.30134 0.3145 0.58476 0.49093 0.86559 0.13113 0.20873 0.42116 0.60769 0.42116 0.60769s-0.40182 0.0766-0.58446 0.16383c-0.29557 0.14111-0.59282 0.31663-0.80098 0.56947-0.17751 0.21571-0.2929 0.48884-0.3452 0.76327-0.0307 0.16097-0.01055 0.3311 0.02325 0.49143 0.04469 0.21254 0.09666 0.43961 0.23409 0.60772 0.06437 0.0786 0.25735 0.16381 0.25735 0.16381s-0.01469-0.29342 0.04651-0.42064c0.06684-0.13911 0.19784-0.24413 0.32763-0.32763 0.22397-0.1442 0.48524-0.23831 0.74828-0.28059 0.38511-0.0619 0.78305-6e-3 1.1694 0.047 0.39704 0.055 0.77767 0.19579 1.1694 0.28059 0.4423 0.0957 0.88292 0.20735 1.3327 0.25683 0.54263 0.0597 1.093 0.0912 1.6371 0.047 0.45103-0.0366 0.90294-0.1157 1.3327-0.25736 0.56626-0.18664 1.1014-0.4668 1.6139-0.77152 0.4798-0.28528 0.92831-0.62418 1.3565-0.98238 0.44823-0.37496 0.87486-0.77904 1.263-1.2159 0.21429-0.2413 0.41737-0.49541 0.58446-0.77153 0.30324-0.50125 0.55751-1.0367 0.74828-1.5906 0.11453-0.33258 0.18249-0.68096 0.23409-1.0289 0.0642-0.43291 0.10734-0.87204 0.09354-1.3095 0.14269 0.41444 0.46203 0.74591 0.67438 1.1296 0.0303 0.0548 0.05862 0.11055 0.08371 0.16796 0.22671 0.51745 0.39928 1.0639 0.49558 1.6206 0.0827 0.47847 0.11615 0.97221 0.06615 1.4552-0.06419 0.61931-0.3641 1.1974-0.66094 1.7859-0.15 0.29731-0.26709 0.66141-0.22789 0.9865 0.0055 0.0464 0.01463 0.0926 0.02894 0.13798 0.05155 0.16357 0.19451 0.33629 0.3638 0.3638 0.19466 0.0316 0.38352-0.13165 0.52917-0.26458 0.154-0.13986 0.24265-0.341 0.33124-0.52917 0.10397-0.22079 0.231-0.69453 0.231-0.69453s0.08786 0.35383 0.23203 0.42942c0.08837 0.0464 0.20436 3e-3 0.29766-0.0325 0.17713-0.0678 0.33124-0.19381 0.4625-0.33073 0.20977-0.21826 0.40259-0.47329 0.49609-0.76121 0.1363-0.41992 0.06666-1.3224 0.06666-1.3224s0.67737 0.60249 1.0253 0.89297c0.32515 0.27141 0.65242 0.5402 0.99167 0.79375 0.35524 0.26543 0.70831 0.53819 1.0919 0.76068 0.401 0.23254 0.82271 0.43259 1.2568 0.59531 0.4183 0.15677 0.8551 0.26107 1.2898 0.3638 0.51343 0.12132 1.0302 0.23816 1.5544 0.29766 0.59191 0.0671 1.1898 0.0551 1.7854 0.0661 0.55111 0.0103 1.1041 0.0357 1.6542 0 0.51034-0.0332 1.0136-0.13714 1.5214-0.19844 0.59466-0.0718 1.1904-0.12965 1.7854-0.19844 0.55149-0.0637 1.1053-0.11475 1.6542-0.19844 0.59852-0.0912 1.1885-0.23283 1.7859-0.33073 0.61541-0.10088 1.2362-0.16332 1.8516-0.26458 0.65288-0.10747 1.2925-0.30289 1.9513-0.3638 0.50497-0.0467 1.0154-0.0246 1.5219 0 0.34295 0.0167 0.70062-0.0124 1.0253 0.0992 0.54365 0.18716 1.0067 0.56623 1.4552 0.92604 0.27968 0.22439 0.55099 0.46979 0.76068 0.76068 0.04322 0.06 0.09246 0.1592 0.13126 0.24339 0.0388 0.0842 0.06666 0.15348 0.06666 0.15348s0.21544-0.65535 0.19844-0.99219c-0.01516-0.2995-0.12069-0.59679-0.26458-0.85989-0.18026-0.32933-0.43238-0.62788-0.7276-0.8599-0.27136-0.21325-0.92552-0.46302-0.92552-0.46302s0.16852-0.29821 0.19792-0.46355c0.0367-0.20648 0.05903-0.43942-0.03307-0.62786-0.05209-0.12197-0.13199-0.23172-0.22789-0.32763h-5.29e-4c-0.09542-0.0964-0.20508-0.17976-0.31678-0.25114-0.22034-0.14076-0.48601-0.21037-0.74466-0.24858-0.37692-0.0833-0.774-0.0103-1.1576 0.0331-0.33513 0.038-0.66786 0.10636-0.99219 0.19896-0.36228 0.10343-0.70998 0.25337-1.0583 0.39688-0.4471 0.1842-0.88112 0.3987-1.3229 0.59531-0.2751 0.12242-0.82682 0.3638-0.82682 0.3638s0.24151-0.45069 0.23151-0.69453c-0.0131-0.32327-0.10591-0.72215-0.38034-0.8935-0.53848-0.33607-1.2801-0.029-1.9017 0.0998-0.49529 0.10255-0.95766 0.32898-1.4221 0.52917-0.76376 0.30758-1.4815 0.71903-2.2159 1.0914-0.51015 0.25866-0.98658 0.58947-1.5208 0.79375-0.40633 0.15534-0.82875 0.27401-1.2568 0.35759-0.14258 0.0278-0.28586 0.0513-0.42943 0.0713-0.10103 0.014-0.20249 0.0257-0.30437 0.0336-0.10177 8e-3 -0.20374 0.0135-0.30592 0.0164-0.20445 6e-3 -0.40918 0-0.61237-0.0175-0.75415-0.0625-1.5138-0.17622-2.2386-0.39532-0.10354-0.0314-0.20648-0.0651-0.30851-0.10078-1.0331-0.362-2.0133-0.89397-2.9104-1.5214-0.5499-0.38471-0.99489-0.90107-1.4883-1.356-0.33258-0.30668-0.68337-0.59595-0.99219-0.92654-0.41732-0.4466-0.80342-0.92306-1.157-1.4216-0.42659-0.60147-0.79991-1.2406-1.1581-1.8852-0.28734-0.51716-0.51775-1.0642-0.79375-1.5875-0.26478-0.50197-0.51878-1.0118-0.82631-1.4888-0.0186-0.0287-0.04011-0.0561-0.05891-0.0847-0.21134-0.32306-0.43478-0.63966-0.69195-0.9271-4e-3 -4e-3 -0.0058-0.0101-0.0098-0.014-0.25759-0.29747-0.5495-0.56361-0.83819-0.83095-0.44507-0.41129-1.3772-1.1865-1.3772-1.1865l-0.0956-6e-3c0.23893-0.018 0.47629-0.052 0.67386-0.17518 0.24048-0.14983 0.50911-0.39471 0.51211-0.678 0.0027-0.24479-0.22276-0.46415-0.42943-0.59531-0.15155-0.0964-0.52917-0.0992-0.52917-0.0992s0.45721-0.16748 0.66094-0.29765c0.09227-0.0589 0.21316-0.11147 0.24856-0.21498 0.04558-0.13292-0.08268-0.41341-0.08268-0.41341s0.63966-0.35039 0.66146-0.66146c0.03515-0.50257-0.9095-1.2072-0.9095-1.2072s0.06394 0.66331-0.08268 0.94258c-0.19291 0.36743-0.58407 0.61616-0.95912 0.79375-0.44164 0.2091-0.95153 0.24291-1.4387 0.28112-0.60486 0.0474-1.218 0.0209-1.8185-0.0661-0.59143-0.0858-1.1524-0.32194-1.7368-0.44648-0.57964-0.12351-1.1616-0.25646-1.7529-0.29766-0.56662-0.0395-1.1361 0.019-1.7033 0.0496-0.49139 0.0265-0.98709 0.0305-1.4717 0.11576-0.52946 0.0932-1.0352 0.29006-1.5544 0.42942-0.11376 0.0306-0.19096 0.05-0.3421 0.0894l1.8278-1.3663c0.10958-0.0599 0.21019-0.13565 0.29869-0.22375 0.51662-0.51663 0.51663-1.3541 0-1.8707-0.51663-0.51662-1.3541-0.51662-1.8707 0-0.0881 0.0885-0.16329 0.18915-0.22324 0.29869l-1.3668 1.8278c0.0394-0.15113 0.0588-0.22834 0.0894-0.34208 0.13938-0.51922 0.33627-1.025 0.42943-1.5544 0.0853-0.48464 0.08983-0.98036 0.11627-1.4718 0.0305-0.56718 0.08911-1.1366 0.04961-1.7032-0.0412-0.59124-0.17466-1.1732-0.29817-1.7529-0.12455-0.58449-0.36071-1.1449-0.44648-1.7363-0.0871-0.60046-0.11354-1.2137-0.06614-1.8185 0.0382-0.48715 0.07201-0.99703 0.28112-1.4387 0.17758-0.37505 0.42684-0.7662 0.79427-0.95911 0.27926-0.14662 0.94206-0.0832 0.94206-0.0832s-0.70406-0.94466-1.2066-0.90951c-0.31107 0.0218-0.66198 0.66198-0.66198 0.66198s-0.28049-0.12878-0.41341-0.0832c-0.10355 0.0354-0.15557 0.15632-0.21446 0.24856-0.13016 0.20376-0.29817 0.66095-0.29817 0.66095s-0.0028-0.37763-0.09922-0.52917c-0.13112-0.2067-0.35004-0.43211-0.5948-0.42943-0.2833 3e-3 -0.52869 0.27164-0.67851 0.51211-0.12315 0.1976-0.15735 0.43493-0.17518 0.67386l-0.0062-0.0956c2e-5 -2e-5 -0.77521-0.93211-1.1865-1.3772-0.26735-0.28868-0.5332-0.58038-0.83044-0.83819-4e-3 -4e-3 -0.01035-6e-3 -0.01395-0.01-0.28745-0.25715-0.60402-0.48115-0.92708-0.69247-0.0286-0.0189-0.05605-0.0398-0.08475-0.0584-0.47696-0.30753-0.98684-0.56154-1.4888-0.82631-0.5233-0.27601-1.0703-0.50641-1.5875-0.79375-0.64458-0.35815-1.2837-0.73148-1.8852-1.1581-0.49857-0.35361-0.97504-0.73971-1.4216-1.157-0.33056-0.30887-0.61988-0.65961-0.92656-0.99219-0.45494-0.4934-0.97129-0.93839-1.356-1.4883-0.62737-0.89708-1.1588-1.8773-1.5208-2.9104-0.0358-0.10202-0.069519-0.20497-0.10077-0.30851-0.21911-0.72481-0.33336-1.4845-0.39584-2.2386-0.016899-0.2032-0.022553-0.40792-0.017052-0.61237 3e-3 -0.10216 0.00762-0.20415 0.016021-0.30592 8e-3 -0.1019 0.019489-0.20333 0.03359-0.30438 0.02-0.14352 0.043514-0.28685 0.071314-0.42943 0.0836-0.42801 0.20277-0.85044 0.35812-1.2568 0.20429-0.53426 0.53456-1.0107 0.79323-1.5208 0.37237-0.73437 0.78433-1.4526 1.0919-2.2164 0.20017-0.46447 0.4261-0.92685 0.52865-1.4221 0.12871-0.62158 0.43583-1.3627 0.099735-1.9012-0.17132-0.27445-0.56972-0.36724-0.89297-0.38034-0.24384-0.01-0.69505 0.23151-0.69505 0.23151s0.24138-0.55171 0.3638-0.82682c0.1966-0.44179 0.41162-0.87582 0.59583-1.3229 0.14351-0.34834 0.29294-0.69604 0.39636-1.0583 0.0926-0.32432 0.16094-0.65708 0.19895-0.99219 0.0435-0.38356 0.11637-0.78115 0.033073-1.1581-0.0382-0.25866-0.1073-0.5238-0.24805-0.74414-0.0714-0.11173-0.15527-0.22184-0.25166-0.31729l-5.292e-4 5.3e-4c-0.0959-0.0959-0.20518-0.1763-0.32711-0.22841-0.18843-0.0921-0.4219-0.0698-0.62839-0.0331-0.16533 0.0294-0.46302 0.19792-0.46302 0.19792s-0.24978-0.65417-0.46302-0.92553c-0.23202-0.29521-0.53056-0.54737-0.8599-0.7276-0.26313-0.14387-0.56091-0.24942-0.86041-0.26458zm9.6594 33.632c-0.41-4e-3 -0.81627 0.0488-1.1963 0.16898-0.46634 0.14749-1.2664 0.48076-1.1209 0.94775 0.17989 0.57734 1.201 0.19081 1.8056 0.17621 1.3587-0.0328 2.1726 0.36416 3.1869 0.77102 0.80377 0.32239 2.2469 1.3033 2.2469 1.3033s-0.65991-0.91076-1.4609-1.7363c-0.48067-0.49526-1.012-0.96011-1.4816-1.1782-0.60249-0.27987-1.2964-0.4458-1.9797-0.45269zm2.5249 4.732c-0.07182-6e-3 -0.14369-5e-3 -0.21549 0-0.25472 0.0225-0.60755 0.21199-0.60823 0.46768-7.41e-4 0.26667 0.38241 0.39566 0.63149 0.49094 0.61401 0.2351 0.89679 0.20118 1.5002 1.0356 0.33851 0.46819 1.0397 1.386 1.0397 1.386s-0.2487-1.8081-0.80925-2.4681c-0.0534-0.0627-0.11064-0.12475-0.17105-0.18552-0.36955-0.37283-0.86459-0.68856-1.3674-0.72761zm14.978 11.216c0-3e-5 0.9814 1.4436 1.3038 2.2474 0.40686 1.0143 0.8033 1.8277 0.7705 3.1864-0.01461 0.60452-0.40112 1.6257 0.17622 1.8056 0.46698 0.14549 0.80025-0.65402 0.94774-1.1204 0.32056-1.0134 0.16408-2.2126-0.2837-3.1766-0.21809-0.46958-0.68247-1.0004-1.1777-1.481-0.82556-0.801-1.7368-1.4614-1.7368-1.4614zm-4.746 0.0496s0.91777 0.70175 1.386 1.0403c0.83439 0.60336 0.80048 0.88564 1.0356 1.4997 0.09497 0.2494 0.22428 0.6322 0.49093 0.63148 0.25571 0 0.44517-0.35351 0.46767-0.60822 0.05073-0.57439-0.30025-1.1608-0.72657-1.5829-0.06081-0.0604-0.12252-0.11795-0.18552-0.17106-0.65997-0.56054-2.4681-0.80925-2.4681-0.80925zm56.758 3.2388c0.0828 0.0899 0.15805 0.18679 0.2229 0.2894 0.12136 0.19215 0.20971 0.40918 0.25725 0.63142 0.0473 0.22121 0.0532 0.45398 0.0234 0.6782-0.0288 0.21632-0.0937 0.43124-0.19293 0.62557-0.0988 0.19335-0.24933 0.35646-0.39172 0.52034-0.13739 0.15813-0.27998 0.31452-0.44433 0.44434-0.18677 0.14752-0.38423 0.2933-0.60804 0.37418-0.0912 0.033-0.2545 0.0424-0.29745 0.0446 0.41699 0.52601 0.37395 1.2809-0.10012 1.7562-0.51663 0.51663-1.3542 0.51663-1.8709 0-0.0427-0.0434-0.0824-0.0897-0.11877-0.13849l-0.0449 0.1151s-0.33161 0.446-0.51449 0.65481c-0.14165 0.16173-0.27746 0.33387-0.45018 0.46187-0.15336 0.11366-0.32587 0.20808-0.50865 0.2631-0.2609 0.0785-0.54119 0.11073-0.81267 0.0877-0.16351-0.0139-0.32354-0.068-0.47356-0.13448-0.1449-0.0641-0.40342-0.25139-0.40342-0.25139s0.30978-0.14387 0.45019-0.23972c0.23742-0.16206 0.45387-0.35566 0.65481-0.56127 0.11617-0.11885 0.23201-0.2423 0.31571-0.38587 0.10316-0.17695 0.17152-0.37448 0.22217-0.57296 0.0447-0.1752 0.0702-0.35707 0.0702-0.53788s-0.0192-0.36441-0.0702-0.53788c-0.0462-0.15723-0.12544-0.30423-0.21048-0.44433-0.15734-0.25923-0.33964-0.50614-0.54958-0.72496-0.22043-0.22975-0.47876-0.42132-0.73665-0.60805-0.28378-0.20547-0.56835-0.41933-0.88867-0.56127-0.26628-0.118-0.8419-0.23386-0.8419-0.23386s0.24839-0.14782 0.38586-0.18708c0.2148-0.0613 0.44326-0.062 0.66651-0.0702 0.24439-9e-3 0.49007-2e-3 0.7333 0.0234 0.26496 0.0277 0.53265 0.0605 0.7868 0.14032 0.21296 0.0669 0.41704 0.16509 0.60804 0.28063 0.21879 0.13236 0.41589 0.29901 0.60804 0.46772 0.13255 0.11638 0.21756 0.29303 0.37417 0.37418 0.40737 0.21107 0.8982 0.25727 1.3564 0.23381 0.20211-0.0103 0.4037-0.0731 0.58465-0.1637 0.22863-0.11452 0.42774-0.28637 0.60804-0.46772 0.17257-0.17358 0.3172-0.37548 0.44433-0.58465 0.0851-0.14004 0.16211-0.28773 0.21048-0.44434 0.0442-0.14327 0.0719-0.29439 0.0701-0.44434-2e-3 -0.17429-0.0348-0.35039-0.0935-0.51449-0.054-0.15116-0.23386-0.42095-0.23386-0.42095-0.0182 1e-3 0.12553 0.0608 0.18709 0.0936 0.25277 0.13423 0.52429 0.24287 0.74835 0.42095 0.095 0.0755 0.18541 0.15854 0.26821 0.24848zm-77.13-8.5067c-0.59535 3e-3 -1.1876 0.2572-1.6893 0.57774-0.34735 0.22191-0.61238 0.55989-0.85524 0.89297-0.15766 0.21622-0.2861 0.45625-0.38241 0.70591-0.17662 0.45773-0.31593 0.94038-0.34933 1.4299-0.0452 0.66249 0.054852 1.3351 0.20567 1.9818 0.0811 0.34772 0.19868 0.69244 0.37207 1.0046 0.21088 0.37965 0.49923 0.71506 0.7984 1.0299 0.45208 0.47604 0.94537 0.92154 1.4929 1.2836 0.43605 0.28829 0.9036 0.55136 1.4066 0.6935 0.54401 0.15375 1.123 0.15862 1.6883 0.15708 0.73529-2e-3 1.47-0.0946 2.1952-0.216 0.63832-0.10682 1.2599-0.29816 1.8893-0.44905 0.01654-4e-3 0.03311-8e-3 0.04961-0.0119-0.30754 0.13917-0.60324 0.26712-0.85938 0.36274-1.1817 0.44122-2.412 0.80224-3.6659 0.93948-1.1127 0.12179-2.2492-0.27466-3.3564-0.11007-0.46926 0.0698-1.0415 0.0956-1.3472 0.45837-0.23595 0.27998-0.37616 0.78041-0.1726 1.0847 0.59783 0.89369 2.0626 0.74079 3.1378 0.74777 0.97394 7e-3 1.9605-0.16153 2.8975-0.46302-1.0983 0.54666-2.1905 0.95655-3.1683 1.0888-0.86248 0.11642-1.3235 0.0616-2.3192 0.0646-0.42942 1e-3 -0.95638 0.057-1.2273 0.39016-0.32675 0.40174-0.43479 1.1069-0.15968 1.5456 0.21058 0.33523 0.72263 0.37534 1.1178 0.40463 0.82181 0.0616 1.6725-0.14708 2.4236-0.48628 0.568-0.25651 1.1884-0.60634 1.8304-1.0077l-5.688 4.578 0.0031 3e-3c-0.35077 0.29133-0.56117 0.71792-0.57878 1.1736-0.017986 0.48614 0.41283 1.1597 0.74362 1.4671l-5.167e-4 5.3e-4c2.307e-4 2.4e-4 8.022e-4 2.7e-4 0.00103 5.1e-4 0.30739 0.33081 0.98148 0.76171 1.4676 0.74363 0.45564-0.0176 0.88221-0.22801 1.1736-0.57877l0.0031 3e-3 4.5775-5.687c-0.40125 0.64183-0.75123 1.2615-1.0077 1.8294-0.33919 0.75107-0.54733 1.6023-0.48576 2.4241 0.029299 0.39513 0.069406 0.90718 0.40463 1.1178 0.43873 0.27508 1.1434 0.16708 1.5451-0.15968 0.33316-0.27093 0.38948-0.7979 0.39067-1.2273 3e-3 -0.99571-0.0519-1.4573 0.0646-2.3198 0.1334-0.98624 0.5495-2.0884 1.1033-3.1962-0.30797 0.94626-0.48002 1.9438-0.47336 2.9285 0.0073 1.0752-0.14537 2.54 0.74827 3.1378 0.30429 0.20354 0.80473 0.0633 1.0847-0.17262 0.36279-0.3057 0.38861-0.87794 0.45837-1.3472 0.1646-1.1072-0.23186-2.2436-0.11007-3.3564 0.13724-1.2539 0.49775-2.4842 0.93896-3.6659 0.09322-0.24966 0.21707-0.5367 0.35192-0.8356-0.0019 8e-3 -0.0038 0.0155-0.0057 0.0233-0.1509 0.62937-0.34174 1.2504-0.44855 1.8888-0.12141 0.72523-0.21452 1.4604-0.21652 2.1957-0.0015 0.56531 0.0034 1.1438 0.1571 1.6878 0.14215 0.50305 0.40521 0.97113 0.6935 1.4072 0.36214 0.54755 0.80815 1.0408 1.2842 1.4929 0.31484 0.29916 0.65024 0.587 1.0299 0.79787 0.31214 0.17339 0.65687 0.2915 1.0046 0.37259 0.64672 0.15084 1.3188 0.25088 1.9813 0.20566 0.48947-0.0334 0.97216-0.17322 1.4299-0.34983 0.24964-0.0963 0.48969-0.22424 0.7059-0.3819 0.33308-0.24286 0.67158-0.5079 0.89348-0.85524 0.32052-0.50173 0.57474-1.0945 0.57774-1.6898 0.0037-0.7116-0.11949-1.0183-0.32246-1.4811-0.15689-0.35775-0.44431-0.7202-0.67334-0.95912-0.56829-0.5683-1.49-0.5683-2.0583 0-0.56831 0.5683-0.5683 1.49 0 2.0583 0.34544 0.34514 0.84133 0.49395 1.3198 0.39634 0.026 0.11602 0.14541 0.68355 0.04651 0.97309-0.11828 0.34594-0.40196 0.64547-0.7183 0.82888-0.37884 0.21974-0.85146 0.24421-1.2893 0.25321-0.37233 8e-3 -0.74252-0.0801-1.1043-0.16846-0.25318-0.0618-0.74052-0.25167-0.74052-0.25167s0.66535-0.86151 0.78083-1.3761c0.11642-0.51884-0.11886-1.5906-0.11886-1.5906s-0.54241 0.5847-0.89917 0.73536c-0.42433 0.17917-0.93062 0.28657-1.3725 0.15658-0.34313-0.10091-0.60911-0.39849-0.83096-0.67903-0.21653-0.2739-0.34836-0.61015-0.45837-0.94155-0.15722-0.47347-0.21957-0.97541-0.27957-1.4707-0.0604-0.49892-0.08262-1.0033-0.08061-1.5058 0.0021-0.54366 0.0075-1.0919 0.09922-1.6278 0.04158-0.24302 0.11135-0.4426 0.18707-0.67284a1.3229 1.3229 0 0 0 0.1974 0.2527 1.3229 1.3229 0 0 0 1.8707 0 1.3229 1.3229 0 0 0 0-1.8712 1.3229 1.3229 0 0 0-0.31161-0.23098 1.3229 1.3229 0 0 0 0.02274-0.0217 1.3229 1.3229 0 0 0 0-1.8712 1.3229 1.3229 0 0 0-1.8707 0 1.3229 1.3229 0 0 0-0.01033 0.0109 1.3229 1.3229 0 0 0-0.19895-0.25527 1.3229 1.3229 0 0 0-1.8707 0 1.3229 1.3229 0 0 0 0 1.8707 1.3229 1.3229 0 0 0 0.2527 0.19741c-0.23019 0.0757-0.42974 0.14544-0.67283 0.18706-0.53588 0.0917-1.0846 0.0966-1.6283 0.0987-0.50255 2e-3 -1.0064-0.0197-1.5053-0.0801-0.49527-0.06-0.99724-0.12234-1.4707-0.27956-0.33137-0.11001-0.66765-0.24236-0.94154-0.45889-0.28053-0.22186-0.57863-0.48731-0.67954-0.83045-0.12996-0.44191-0.022074-0.94819 0.1571-1.3725 0.15065-0.35676 0.73536-0.89969 0.73536-0.89969s-1.0718-0.23473-1.5906-0.11832c-0.51462 0.11547-1.3767 0.78082-1.3767 0.78082s-0.18932-0.48734-0.25115-0.74052c-0.0884-0.36182-0.17631-0.7325-0.16847-1.1048 9e-3 -0.43786 0.033038-0.90995 0.2527-1.2888 0.18341-0.31634 0.48338-0.60007 0.82941-0.71829 0.28951-0.0989 0.85706 0.0205 0.97307 0.0465-0.0976 0.4785 0.051188 0.97386 0.39636 1.3193 0.56829 0.56829 1.4895 0.56829 2.0578 0 0.5683-0.5683 0.5683-1.4894 0-2.0578-0.23902-0.22892-0.60087-0.51644-0.9586-0.67336-0.46276-0.20297-0.76998-0.3261-1.4816-0.32245z"/>
 </g>
</svg>
